<svg width="11" height="21" viewBox="0 0 11 21" fill="white" xmlns="http://www.w3.org/2000/svg">
<path d="M10.2273 1.68725C10.3176 1.59178 10.3881 1.47947 10.4349 1.35674C10.4817 1.23401 10.5039 1.10327 10.5002 0.971965C10.4965 0.840663 10.4669 0.711378 10.4133 0.591492C10.3596 0.471606 10.2828 0.363467 10.1873 0.273249C10.0919 0.183031 9.97957 0.112501 9.85684 0.0656852C9.73411 0.0188697 9.60336 -0.00331434 9.47206 0.000400002C9.34076 0.00411435 9.21147 0.0336542 9.09159 0.0873329C8.9717 0.141012 8.86356 0.217778 8.77334 0.313249L0.273343 9.31325C0.0978063 9.49892 0 9.74474 0 10.0002C0 10.2558 0.0978063 10.5016 0.273343 10.6872L8.77334 19.6882C8.86296 19.7858 8.97108 19.8646 9.09141 19.92C9.21173 19.9754 9.34187 20.0064 9.47427 20.0111C9.60666 20.0158 9.73867 19.9942 9.86263 19.9474C9.98659 19.9007 10.1 19.8298 10.1963 19.7388C10.2927 19.6479 10.3699 19.5387 10.4237 19.4176C10.4775 19.2965 10.5067 19.166 10.5095 19.0335C10.5124 18.9011 10.489 18.7694 10.4405 18.6461C10.3921 18.5228 10.3196 18.4103 10.2273 18.3153L2.37534 10.0002L10.2273 1.68725Z" fill="white"/>
</svg>
